<?xml version="1.0" encoding="UTF-8" standalone="no"?>
<!-- Generator: Adobe Illustrator 14.0.0, SVG Export Plug-In . SVG Version: 6.00 Build 43363)  -->

<svg
   version="1.1"
   id="Layer_1"
   x="0px"
   y="0px"
   width="160"
   height="150"
   viewBox="0 0 160 150"
   enable-background="new 0 0 646 646"
   xml:space="preserve"
   sodipodi:docname="icon.svg"
   inkscape:version="1.3.2 (091e20e, 2023-11-25, custom)"
   inkscape:export-filename="favicon.png"
   inkscape:export-xdpi="7.1331267"
   inkscape:export-ydpi="7.1331267"
   xmlns:inkscape="http://www.inkscape.org/namespaces/inkscape"
   xmlns:sodipodi="http://sodipodi.sourceforge.net/DTD/sodipodi-0.dtd"
   xmlns="http://www.w3.org/2000/svg"
   xmlns:svg="http://www.w3.org/2000/svg"><defs
   id="defs8" /><sodipodi:namedview
   id="namedview8"
   pagecolor="#ffffff"
   bordercolor="#000000"
   borderopacity="0.25"
   inkscape:showpageshadow="2"
   inkscape:pageopacity="0.0"
   inkscape:pagecheckerboard="0"
   inkscape:deskcolor="#d1d1d1"
   inkscape:zoom="1.2445517"
   inkscape:cx="260.73645"
   inkscape:cy="247.07692"
   inkscape:window-width="1487"
   inkscape:window-height="1071"
   inkscape:window-x="3652"
   inkscape:window-y="79"
   inkscape:window-maximized="0"
   inkscape:current-layer="Layer_1"
   inkscape:export-bgcolor="#ffffff00" />
<g
   id="g8"
   style="fill:#000000"
   transform="matrix(0.22884504,0,0,0.22884467,6.1192385,2.9383519)">
	<path
   fill-rule="evenodd"
   clip-rule="evenodd"
   fill="#888888"
   d="m 445.73,35.592 c 67.819,28.774 117.623,75.567 151.911,137.869 -33.281,47.994 -64.773,97.778 -98.934,144.891 C 481.521,223.626 463.068,130.169 445.73,35.592 Z"
   id="path1"
   style="fill:#000000;fill-opacity:1" />
	<path
   fill-rule="evenodd"
   clip-rule="evenodd"
   fill="#888888"
   d="m 11.061,331.755 c 0,-6.169 0,-12.339 0,-18.51 1.801,-29.474 5.774,-56.777 13.404,-80.423 C 82.909,221.904 140.551,210.188 198.716,198.993 144.392,280.619 90.622,362.809 35.954,444.093 22.095,412.208 13.302,375.258 11.061,331.755 Z"
   id="path2"
   style="fill:#000000;fill-opacity:1" />
	<path
   fill-rule="evenodd"
   clip-rule="evenodd"
   fill="#888888"
   d="m 635.938,313.245 c 0,6.17 0,12.34 0,18.51 -1.802,29.474 -5.774,56.778 -13.404,80.424 C 563.296,422.94 505.118,434.758 446.369,446.008 501.272,364.96 556.674,281 611.684,202.185 c 13.385,31.72 22.084,68.127 24.254,111.06 z"
   id="path3"
   style="fill:#000000;fill-opacity:1" />
	<path
   fill-rule="evenodd"
   clip-rule="evenodd"
   fill="#888888"
   d="m 150.207,321.542 c 18.12,95.921 35.684,192.393 52.978,289.142 C 135.378,581.685 85.08,535.177 49.997,473.454 82.689,422.106 116.73,372.107 150.207,321.542 Z"
   id="path4"
   style="fill:#000000;fill-opacity:1" />
	<path
   fill-rule="evenodd"
   clip-rule="evenodd"
   fill="#888888"
   d="m 611.046,441.539 c 0.425,0 0.851,0 1.276,0 -29.56,69.589 -77.443,120.849 -141.061,156.38 -43.593,-28.461 -87.719,-58.349 -130.848,-88.082 -5.879,-4.055 -11.169,-7.956 -17.233,-12.767 96.55,-17.914 192.049,-36.883 287.866,-55.531 z"
   id="path5"
   style="fill:#000000;fill-opacity:1" />
	<path
   fill-rule="evenodd"
   clip-rule="evenodd"
   fill="#888888"
   d="m 314.245,10.062 c 6.17,0 12.34,0 18.51,0 30.459,2.092 59.437,5.668 82.977,14.68 11.181,56.479 21.314,114 32.553,170.421 C 368.577,140.619 287.735,87.208 208.929,31.763 239.545,20.041 273.878,12.035 314.245,10.062 Z"
   id="path6"
   style="fill:#000000;fill-opacity:1" />
	<path
   fill-rule="evenodd"
   clip-rule="evenodd"
   fill="#888888"
   d="m 314.245,634.939 c -29.966,-1.948 -58.111,-5.717 -81.7,-14.043 -9.907,-57.751 -20.655,-114.658 -31.276,-171.697 80.147,54.104 161.138,107.367 239.994,162.762 -31.418,12.411 -66.7,20.956 -108.508,22.979 -6.17,-0.001 -12.34,-0.001 -18.51,-0.001 z"
   id="path7"
   style="fill:#000000;fill-opacity:1" />
	<path
   fill-rule="evenodd"
   clip-rule="evenodd"
   fill="#888888"
   d="m 97.429,106.233 c 4.388,-4.337 8.777,-8.673 13.166,-13.011 22.23,-19.436 44.443,-35.803 66.625,-46.997 48.846,33.897 97.697,66.661 146.545,100.163 -96.244,18.736 -192.5,38.264 -288.742,56.515 12.937,-32.27 33.039,-64.498 62.406,-96.67 z"
   id="path8"
   style="fill:#000000;fill-opacity:1" />
</g>
</svg>
