<?xml version="1.0" encoding="UTF-8" standalone="no"?>
<!-- Generator: Adobe Illustrator 13.0.0, SVG Export Plug-In . SVG Version: 6.00 Build 14948)  -->

<svg
   version="1.1"
   id="_x30_00_2_"
   x="0px"
   y="0px"
   width="80"
   height="80"
   viewBox="0 2.789 80 80.000005"
   enable-background="new 0 2.789 4295.141 1497.789"
   xml:space="preserve"
   sodipodi:docname="Aperture_Science_Innovators_Logo.svg"
   inkscape:version="1.3.2 (091e20e, 2023-11-25, custom)"
   inkscape:export-filename="logo.svg"
   inkscape:export-xdpi="4.48"
   inkscape:export-ydpi="4.48"
   xmlns:inkscape="http://www.inkscape.org/namespaces/inkscape"
   xmlns:sodipodi="http://sodipodi.sourceforge.net/DTD/sodipodi-0.dtd"
   xmlns="http://www.w3.org/2000/svg"
   xmlns:svg="http://www.w3.org/2000/svg"><defs
   id="defs62" /><sodipodi:namedview
   id="namedview62"
   pagecolor="#ffffff"
   bordercolor="#000000"
   borderopacity="0.25"
   inkscape:showpageshadow="2"
   inkscape:pageopacity="0.0"
   inkscape:pagecheckerboard="0"
   inkscape:deskcolor="#d1d1d1"
   inkscape:zoom="0.3062108"
   inkscape:cx="822.96247"
   inkscape:cy="982.98295"
   inkscape:window-width="1662"
   inkscape:window-height="1250"
   inkscape:window-x="3555"
   inkscape:window-y="6"
   inkscape:window-maximized="0"
   inkscape:current-layer="Layer_3_1_" />

<g
   id="_x30_00">
	<g
   id="g62">
		<g
   id="_x30_0_4_">
			<g
   id="g28"
   transform="matrix(0.05087805,0,0,0.05087206,1.6586725,7.9706146)">
				<path
   fill="none"
   stroke="#637b93"
   stroke-width="24"
   d="m 871.664,682.51 c 103.576,178.177 131.751,355.046 62.931,395.056 C 865.776,1117.574 726.013,1005.568 622.436,827.39 518.859,649.213 490.688,472.34 559.508,432.33 c 68.82,-40.003 208.578,72.003 312.156,250.18 z"
   id="path26"
   style="stroke:#d79921" />
				<path
   fill="none"
   stroke="#637b93"
   stroke-width="24"
   d="M 871.723,827.289 C 768.285,1005.551 628.619,1117.668 559.766,1077.717 490.913,1037.766 518.943,860.865 622.372,682.61 725.81,504.35 865.476,392.235 934.332,432.184 c 68.855,39.953 40.824,216.85 -62.609,395.105 z"
   id="path27"
   style="display:inline;stroke:#d79921" />
				<path
   fill="none"
   stroke="#637b93"
   stroke-width="24"
   d="m 747.926,899.092 c -206.099,-0.18 -373.112,-64.854 -373.044,-144.459 0.064,-79.603 167.191,-144 373.288,-143.824 206.096,0.176 373.109,64.854 373.046,144.458 -0.069,79.606 -167.197,143.999 -373.29,143.825 z"
   id="path28"
   style="stroke:#d79921" />
			</g>
			<g
   id="Layer_3_1_">
				<ellipse
   fill="#637b93"
   cx="39.667168"
   cy="46.383698"
   id="circle28"
   style="fill:#d79921;stroke-width:0.050875"
   rx="2.416707"
   ry="2.4164228" />
			</g>
		</g>
		<g
   id="_x30_0_3_"
   transform="matrix(0.05087805,0,0,0.05087206,1.6586725,7.9706146)">
			<g
   id="g30"
   style="fill:#d79921;fill-opacity:1">
				<g
   id="g29"
   style="fill:#d79921;fill-opacity:1">
					<path
   fill="#637b93"
   d="m 788.404,1145.604 v 294.793 c 169.561,-9.967 322.608,-81.338 437.235,-192.199 L 790.003,1145.427 c -0.533,0.053 -1.064,0.122 -1.599,0.177 z m 0,-1059.102 v 275.115 c 83.378,8.406 159.064,42.828 218.869,94.998 z m 352.057,627.979 110.769,-400.207 -197.142,190.748 c 47.474,58.307 78.582,130.457 86.373,209.459 z m -323.802,427.214 396.487,93.535 -191.43,-197.844 c -55.302,53.28 -126.148,90.526 -205.057,104.309 z M 445.957,501.1 77.841,743.489 h 276.69 c 2.324,-92.143 36.287,-176.42 91.426,-242.389 z m 71.295,571.601 241.229,351.463 V 1147.48 c -3.352,0.084 -6.709,0.127 -10.078,0.127 -86.358,0 -166.222,-27.787 -231.151,-74.906 z M 358.283,808.984 269.345,1222.679 468.043,1030.427 C 410.02,971.668 370.348,894.758 358.283,808.984 Z M 720.167,360.622 304.104,252.69 496.031,451.047 c 61.597,-51.437 139.143,-84.406 224.136,-90.425 z m 314.144,121.9 210.775,-203.938 C 1128.615,156.592 967.741,77.369 788.404,66.828 v 0.522 l 244.902,414.141 c 0.334,0.343 0.674,0.681 1.005,1.031 z M 473.752,471.124 c 0.012,-0.01 0.021,-0.021 0.034,-0.033 L 268.873,259.307 C 141.957,382.198 62.224,553.522 59.484,743.489 h 0.633 z M 354.895,773.408 H 59.694 c 5.078,179.738 79.092,342.225 196.542,461.955 l 0.518,-0.5 98.378,-457.611 c -0.077,-1.281 -0.173,-2.557 -0.237,-3.844 z m 134.983,277.526 -212.224,205.342 c 122.963,114.961 288.136,185.336 469.749,185.336 3.7,0 7.393,-0.041 11.078,-0.1 v -0.119 L 491.343,1052.182 c -0.484,-0.418 -0.981,-0.827 -1.465,-1.248 z M 1435.323,743.489 C 1432.879,573.993 1369.136,419.337 1265.279,300.68 l -0.231,0.227 -122.498,442.582 z m -392.839,272.327 204.243,211.09 c 112.658,-118.813 183.356,-277.803 188.378,-453.244 l -392.315,241.805 c -0.105,0.117 -0.205,0.234 -0.306,0.349 z m 19.455,-23.603 354.995,-218.803 h -275.021 c -4.062,82.047 -33.235,157.479 -79.974,218.803 z M 290.811,238.95 l 0.284,0.294 464.269,120.436 c 1.041,0.02 2.082,0.031 3.118,0.061 V 65.709 c -3.687,-0.058 -7.378,-0.098 -11.077,-0.098 -175.212,10e-4 -335.124,65.496 -456.594,173.339 z"
   id="path29"
   style="fill:#d79921;fill-opacity:1" />
				</g>
			</g>
			<g
   id="Layer_1_1_">
				<g
   id="bg_1_"
   display="none">
					<rect
   x="-323.328"
   y="-245.94501"
   display="inline"
   fill="#ffffff"
   width="2145.2141"
   height="2471.623"
   id="rect30" />
				</g>
				<g
   id="external_rectangle_1_"
   display="none">
					<path
   display="inline"
   fill="none"
   stroke="#637b93"
   stroke-width="68"
   d="m -249.323,1462.941 c 0,-7.918 5.539,-14.338 12.371,-14.338 h 1976.458 c 6.834,0 12.373,6.42 12.373,14.338 v 670.396 c 0,7.92 -5.539,14.34 -12.373,14.34 H -236.952 c -6.833,0 -12.371,-6.42 -12.371,-14.34 z"
   id="path30" />
				</g>
				<g
   id="external_circle_1_"
   display="none">
					<circle
   display="inline"
   fill="#ffffff"
   stroke="#637b93"
   stroke-width="68"
   cx="748.92798"
   cy="760.72498"
   r="810"
   id="circle30" />
				</g>
				<g
   id="rectangle_bg_bas_1_"
   display="none">
					<path
   display="inline"
   fill="#ffffff"
   d="m -246.071,2096.574 c 0,9.934 12.215,17.982 27.28,17.982 h 1941.437 c 15.064,0 27.277,-8.055 27.277,-17.982 v -596.527 c 0,-9.938 -12.213,-17.984 -27.277,-17.984 H -218.789 c -15.065,0 -27.28,8.057 -27.28,17.984 z"
   id="path31" />
				</g>
				<g
   id="text_bas_1_">
					<g
   display="none"
   enable-background="new    "
   id="g48">
						<path
   display="inline"
   fill="#637b93"
   d="m -154.047,1928.391 c 0,-12.066 2.875,-21.332 8.626,-27.795 5.751,-6.461 14.377,-9.691 25.879,-9.691 11.502,0 20.128,3.23 25.879,9.691 5.751,6.463 8.626,15.729 8.626,27.795 v 5.752 h -22.152 v -7.242 c 0,-5.395 -1.031,-9.189 -3.088,-11.395 -2.06,-2.201 -4.936,-3.303 -8.626,-3.303 -3.694,0 -6.569,1.102 -8.626,3.303 -2.061,2.203 -3.089,6 -3.089,11.395 0,5.111 1.136,9.621 3.408,13.525 2.271,3.908 5.112,7.598 8.521,11.076 3.407,3.479 7.063,6.959 10.969,10.438 3.904,3.48 7.562,7.277 10.97,11.396 3.407,4.117 6.247,8.807 8.521,14.057 2.27,5.256 3.407,11.434 3.407,18.531 0,12.072 -2.948,21.338 -8.84,27.797 -5.894,6.463 -14.59,9.691 -26.092,9.691 -11.503,0 -20.202,-3.23 -26.093,-9.691 -5.895,-6.459 -8.84,-15.725 -8.84,-27.797 v -10.229 h 22.152 v 11.721 c 0,5.395 1.1,9.152 3.303,11.289 2.199,2.129 5.145,3.189 8.838,3.189 3.691,0 6.637,-1.063 8.84,-3.189 2.201,-2.137 3.302,-5.896 3.302,-11.289 0,-5.113 -1.138,-9.619 -3.408,-13.525 -2.272,-3.904 -5.112,-7.596 -8.521,-11.076 -3.408,-3.479 -7.064,-6.957 -10.969,-10.438 -3.906,-3.48 -7.562,-7.275 -10.97,-11.396 -3.408,-4.115 -6.25,-8.803 -8.521,-14.059 -2.272,-5.25 -3.406,-11.428 -3.406,-18.531 z"
   id="path32" />
						<path
   display="inline"
   fill="#637b93"
   d="m 20.397,1986.115 v 19.811 c 0,12.07 -2.945,21.336 -8.839,27.797 -5.894,6.463 -14.59,9.691 -26.092,9.691 -11.502,0 -20.202,-3.23 -26.093,-9.691 -5.894,-6.461 -8.839,-15.727 -8.839,-27.797 v -77.533 c 0,-12.063 2.945,-21.332 8.839,-27.795 5.891,-6.461 14.591,-9.688 26.093,-9.688 11.502,0 20.198,3.229 26.092,9.688 5.895,6.463 8.839,15.73 8.839,27.795 v 14.484 H -1.751 v -15.979 c 0,-5.395 -1.104,-9.188 -3.301,-11.395 -2.204,-2.201 -5.149,-3.303 -8.844,-3.303 -3.691,0 -6.64,1.102 -8.839,3.303 -2.203,2.203 -3.301,6 -3.301,11.395 v 80.518 c 0,5.395 1.098,9.158 3.301,11.289 2.2,2.129 5.146,3.193 8.839,3.193 3.691,0 6.64,-1.064 8.844,-3.193 2.196,-2.131 3.301,-5.895 3.301,-11.289 v -21.301 z"
   id="path33" />
						<path
   display="inline"
   fill="#637b93"
   d="m 58.521,1892.607 h 23.434 v 149.102 H 58.521 Z"
   id="path34" />
						<path
   display="inline"
   fill="#637b93"
   d="m 146.274,1955.443 h 32.163 v 21.301 h -32.163 v 43.664 h 40.474 v 21.301 h -63.9 v -149.102 h 63.9 v 21.303 h -40.473 z"
   id="path35" />
						<path
   display="inline"
   fill="#637b93"
   d="m 245.958,1933.717 v 107.99 h -21.087 v -149.105 h 29.394 l 24.069,89.248 v -89.248 h 20.874 v 149.105 h -24.069 z"
   id="path36" />
						<path
   display="inline"
   fill="#637b93"
   d="m 407.835,1986.115 v 19.811 c 0,12.07 -2.948,21.336 -8.839,27.797 -5.896,6.463 -14.591,9.691 -26.093,9.691 -11.506,0 -20.202,-3.23 -26.097,-9.691 -5.894,-6.461 -8.84,-15.727 -8.84,-27.797 v -77.533 c 0,-12.063 2.946,-21.332 8.84,-27.795 5.895,-6.461 14.592,-9.688 26.097,-9.688 11.502,0 20.194,3.229 26.093,9.688 5.891,6.463 8.839,15.73 8.839,27.795 v 14.484 h -22.151 v -15.979 c 0,-5.395 -1.102,-9.188 -3.302,-11.395 -2.203,-2.201 -5.148,-3.303 -8.84,-3.303 -3.694,0 -6.644,1.102 -8.839,3.303 -2.204,2.203 -3.306,6 -3.306,11.395 v 80.518 c 0,5.395 1.102,9.158 3.306,11.289 2.195,2.129 5.145,3.193 8.839,3.193 3.688,0 6.637,-1.064 8.84,-3.193 2.2,-2.131 3.302,-5.895 3.302,-11.289 v -21.301 z"
   id="path37" />
						<path
   display="inline"
   fill="#637b93"
   d="m 469.389,1955.443 h 32.163 v 21.301 h -32.163 v 43.664 h 40.473 v 21.301 h -63.899 v -149.102 h 63.899 v 21.303 h -40.473 z"
   id="path38" />
						<path
   display="inline"
   fill="#637b93"
   d="m 605.07,1892.607 h 23.43 v 149.102 h -23.43 z"
   id="path39" />
						<path
   display="inline"
   fill="#637b93"
   d="m 690.267,1933.717 v 107.99 h -21.088 v -149.105 h 29.396 l 24.065,89.248 v -89.248 h 20.873 v 149.105 H 719.45 Z"
   id="path40" />
						<path
   display="inline"
   fill="#637b93"
   d="m 805.071,1933.717 v 107.99 h -21.089 v -149.105 h 29.396 l 24.066,89.248 v -89.248 h 20.875 v 149.105 H 834.25 Z"
   id="path41" />
						<path
   display="inline"
   fill="#637b93"
   d="m 897.083,1928.391 c 0,-12.066 3.053,-21.332 9.16,-27.795 6.104,-6.461 14.91,-9.691 26.412,-9.691 11.502,0 20.305,3.23 26.409,9.691 6.104,6.463 9.157,15.729 9.157,27.795 v 77.533 c 0,12.07 -3.055,21.336 -9.157,27.797 -6.104,6.463 -14.907,9.691 -26.409,9.691 -11.503,0 -20.313,-3.23 -26.412,-9.691 -6.107,-6.461 -9.16,-15.727 -9.16,-27.797 z m 23.431,79.025 c 0,5.395 1.1,9.193 3.302,11.395 2.198,2.203 5.146,3.305 8.841,3.305 3.689,0 6.639,-1.102 8.842,-3.305 2.197,-2.197 3.301,-5.996 3.301,-11.395 v -80.518 c 0,-5.395 -1.104,-9.189 -3.301,-11.395 -2.203,-2.199 -5.148,-3.303 -8.842,-3.303 -3.694,0 -6.643,1.104 -8.841,3.303 -2.202,2.203 -3.302,6 -3.302,11.395 z"
   id="path42" />
						<path
   display="inline"
   fill="#637b93"
   d="m 1042.35,2014.23 17.896,-121.623 h 21.514 l -23.004,149.102 h -34.937 l -23.005,-149.102 h 23.646 z"
   id="path43" />
						<path
   display="inline"
   fill="#637b93"
   d="m 1186.977,2041.709 h -23.643 l -4.047,-27.053 h -28.754 l -4.047,27.053 h -21.516 l 23.855,-149.104 h 34.293 z m -53.463,-47.287 h 22.578 l -11.289,-75.402 z"
   id="path44" />
						<path
   display="inline"
   fill="#637b93"
   d="m 1215.305,1892.607 h 72.42 v 21.301 h -24.493 v 127.801 h -23.431 v -127.801 h -24.496 z"
   id="path45" />
						<path
   display="inline"
   fill="#637b93"
   d="m 1320.311,1928.391 c 0,-12.066 3.057,-21.332 9.16,-27.795 6.104,-6.461 14.91,-9.691 26.412,-9.691 11.502,0 20.306,3.23 26.412,9.691 6.104,6.463 9.158,15.729 9.158,27.795 v 77.533 c 0,12.07 -3.059,21.336 -9.158,27.797 -6.107,6.463 -14.91,9.691 -26.412,9.691 -11.502,0 -20.309,-3.23 -26.412,-9.691 -6.103,-6.461 -9.16,-15.727 -9.16,-27.797 z m 23.432,79.025 c 0,5.395 1.098,9.193 3.303,11.395 2.199,2.203 5.146,3.305 8.838,3.305 3.691,0 6.637,-1.102 8.84,-3.305 2.201,-2.197 3.304,-5.996 3.304,-11.395 v -80.518 c 0,-5.395 -1.103,-9.189 -3.304,-11.395 -2.203,-2.199 -5.146,-3.303 -8.84,-3.303 -3.694,0 -6.639,1.104 -8.838,3.303 -2.205,2.203 -3.303,6 -3.303,11.395 z"
   id="path46" />
						<path
   display="inline"
   fill="#637b93"
   d="m 1479.422,2041.709 c -0.287,-0.992 -0.57,-1.918 -0.854,-2.771 -0.283,-0.852 -0.529,-1.916 -0.742,-3.193 -0.217,-1.275 -0.355,-2.906 -0.43,-4.896 -0.07,-1.986 -0.104,-4.473 -0.104,-7.455 v -23.43 c 0,-6.957 -1.207,-11.855 -3.621,-14.697 -2.416,-2.84 -6.32,-4.26 -11.715,-4.26 h -8.094 v 60.705 h -23.434 v -149.104 h 35.357 c 12.211,0 21.051,2.844 26.52,8.521 5.465,5.682 8.199,14.27 8.199,25.77 v 11.721 c 0,15.336 -5.109,25.42 -15.336,30.246 5.965,2.416 10.045,6.354 12.248,11.814 2.199,5.473 3.301,12.107 3.301,19.916 v 23.004 c 0,3.693 0.145,6.926 0.428,9.691 0.281,2.77 0.99,5.574 2.133,8.414 h -23.856 z m -25.561,-127.801 v 45.795 h 9.157 c 4.4,0 7.847,-1.135 10.33,-3.406 2.482,-2.27 3.73,-6.391 3.73,-12.354 v -14.695 c 0,-5.396 -0.959,-9.301 -2.877,-11.717 -1.916,-2.41 -4.938,-3.619 -9.055,-3.619 h -11.288 v 0 0 z"
   id="path47" />
						<path
   display="inline"
   fill="#637b93"
   d="m 1536.93,1928.391 c 0,-12.066 2.875,-21.332 8.627,-27.795 5.75,-6.461 14.377,-9.691 25.879,-9.691 11.503,0 20.13,3.23 25.882,9.691 5.75,6.463 8.625,15.729 8.625,27.795 v 5.752 h -22.147 v -7.242 c 0,-5.395 -1.033,-9.189 -3.09,-11.395 -2.063,-2.201 -4.938,-3.303 -8.627,-3.303 -3.693,0 -6.568,1.102 -8.625,3.303 -2.063,2.203 -3.09,6 -3.09,11.395 0,5.111 1.135,9.621 3.405,13.525 2.271,3.908 5.112,7.598 8.521,11.076 3.408,3.477 7.063,6.959 10.969,10.438 3.904,3.48 7.564,7.277 10.973,11.396 3.406,4.117 6.244,8.807 8.521,14.057 2.271,5.256 3.406,11.434 3.406,18.531 0,12.072 -2.947,21.338 -8.84,27.797 -5.896,6.463 -14.593,9.691 -26.095,9.691 -11.502,0 -20.201,-3.23 -26.093,-9.691 -5.896,-6.459 -8.84,-15.725 -8.84,-27.797 v -10.229 h 22.15 v 11.721 c 0,5.395 1.1,9.152 3.303,11.289 2.199,2.129 5.146,3.189 8.84,3.189 3.689,0 6.637,-1.063 8.84,-3.189 2.199,-2.137 3.302,-5.896 3.302,-11.289 0,-5.113 -1.14,-9.619 -3.405,-13.525 -2.271,-3.904 -5.111,-7.596 -8.521,-11.076 -3.407,-3.479 -7.063,-6.957 -10.969,-10.438 -3.908,-3.48 -7.563,-7.275 -10.974,-11.396 -3.405,-4.115 -6.25,-8.803 -8.521,-14.059 -2.27,-5.25 -3.406,-11.428 -3.406,-18.531 z"
   id="path48" />
					</g>
				</g>
				<g
   id="circle_center_1_"
   display="none">
					<circle
   display="inline"
   fill="none"
   stroke="#637b93"
   stroke-width="293"
   cx="749.09399"
   cy="752.85101"
   r="540.05298"
   id="circle48" />
				</g>
				<g
   id="lines_center_big_1_"
   display="none">
					<g
   display="inline"
   id="g51">
						<line
   fill="none"
   stroke="#ffffff"
   stroke-width="30"
   x1="774.92798"
   y1="31.725"
   x2="774.92798"
   y2="1501.725"
   id="line48" />
						<line
   fill="none"
   stroke="#ffffff"
   stroke-width="30"
   x1="1488.928"
   y1="756.72498"
   x2="18.926001"
   y2="756.72498"
   id="line49" />
						<line
   fill="none"
   stroke="#ffffff"
   stroke-width="30"
   x1="1293.936"
   y1="1294.0179"
   x2="271.91699"
   y2="237.43201"
   id="line50" />
						<line
   fill="none"
   stroke="#ffffff"
   stroke-width="30"
   x1="230.633"
   y1="1281.734"
   x2="1287.219"
   y2="259.71301"
   id="line51" />
					</g>
				</g>
				<g
   id="lines_center_small_1_"
   display="none">
					<line
   display="inline"
   fill="none"
   stroke="#1131a5"
   stroke-width="10"
   x1="272.927"
   y1="243.72501"
   x2="778.92798"
   y2="363.72501"
   id="line52" />
					
						<line
   display="inline"
   fill="none"
   stroke="#1131a5"
   stroke-width="10"
   x1="767.92798"
   y1="1145.725"
   x2="1273.928"
   y2="1265.725"
   id="line53" />
					<g
   display="inline"
   id="g61">
						<line
   fill="none"
   stroke="#ffffff"
   stroke-width="10"
   x1="784.297"
   y1="45.625"
   x2="1037.557"
   y2="499.82501"
   id="line54" />
						<line
   fill="none"
   stroke="#ffffff"
   stroke-width="10"
   x1="481.09799"
   y1="1025.541"
   x2="793.46503"
   y2="1495.369"
   id="line55" />
						<line
   fill="none"
   stroke="#ffffff"
   stroke-width="10"
   x1="480.784"
   y1="469.901"
   x2="41.071999"
   y2="747.547"
   id="line56" />
						<line
   fill="none"
   stroke="#ffffff"
   stroke-width="10"
   x1="1508.928"
   y1="731.72498"
   x2="1024.359"
   y2="1021.469"
   id="line57" />
						<line
   fill="none"
   stroke="#ffffff"
   stroke-width="10"
   x1="1284.657"
   y1="265.28601"
   x2="1131.198"
   y2="762.16199"
   id="line58" />
						<line
   fill="none"
   stroke="#ffffff"
   stroke-width="10"
   x1="366.927"
   y1="745.72302"
   x2="246.927"
   y2="1251.723"
   id="line59" />
						<line
   fill="none"
   stroke="#ffffff"
   stroke-width="10"
   x1="1300.37"
   y1="1272.4041"
   x2="761.77002"
   y2="1132.238"
   id="line60" />
						<line
   fill="none"
   stroke="#ffffff"
   stroke-width="10"
   x1="763.76202"
   y1="366.409"
   x2="263.90701"
   y2="222.946"
   id="line61" />
					</g>
				</g>
			</g>
		</g>
	</g>
</g>
</svg>
